<svg xmlns="http://www.w3.org/2000/svg" viewBox="0 0 1488 1186"><defs><style>.cls-1{fill:#fff;}</style></defs><g id="Layer_3" data-name="Layer 3"><g id="Page-1"><g id="Emblem-Only"><path id="Combined-Shape" class="cls-1" d="M1356.23,1185.44l.44,1.07H288.45l.71-1.3H40.34a40,40,0,0,1-35.5-58.43L359.51,444a40,40,0,0,1,7.25-9.89A138.93,138.93,0,0,1,613,463.62l28.67,78.79L888,93.15a138.92,138.92,0,0,1,261.23-.39L1479.1,999.18a139,139,0,0,1-122.87,186.26ZM1127.62,678l143.91,395.4a76.67,76.67,0,1,0,144.09-52.44L1085.71,114.51A76.67,76.67,0,0,0,941.62,167l133.55,366.93L626.56,697.17,549.47,485.38a76.67,76.67,0,1,0-144.09,52.44l194.74,535.06a76.67,76.67,0,0,0,144.1-52.45L679,841.27Z"/></g></g></g></svg>